<?xml version="1.0" encoding="UTF-8" standalone="no"?>
<!-- Created with Inkscape (http://www.inkscape.org/) -->

<svg
   xmlns:dc="http://purl.org/dc/elements/1.1/"
   xmlns:cc="http://creativecommons.org/ns#"
   xmlns:rdf="http://www.w3.org/1999/02/22-rdf-syntax-ns#"
   xmlns:svg="http://www.w3.org/2000/svg"
   xmlns="http://www.w3.org/2000/svg"
   xmlns:sodipodi="http://sodipodi.sourceforge.net/DTD/sodipodi-0.dtd"
   xmlns:inkscape="http://www.inkscape.org/namespaces/inkscape"
   width="100mm"
   height="100mm"
   viewBox="0 0 100 100"
   version="1.1"
   id="svg8"
   sodipodi:docname="logo-black.svg"
   inkscape:version="0.92.4 (5da689c313, 2019-01-14)">
  <defs
     id="defs2" />
  <sodipodi:namedview
     id="base"
     pagecolor="#ffffff"
     bordercolor="#666666"
     borderopacity="1.0"
     inkscape:pageopacity="0.0"
     inkscape:pageshadow="2"
     inkscape:zoom="1"
     inkscape:cx="522.95281"
     inkscape:cy="144.44906"
     inkscape:document-units="mm"
     inkscape:current-layer="layer1"
     showgrid="false"
     showguides="true"
     inkscape:guide-bbox="true"
     inkscape:window-width="1500"
     inkscape:window-height="937"
     inkscape:window-x="-8"
     inkscape:window-y="-8"
     inkscape:window-maximized="1"
     inkscape:snap-text-baseline="true">
    <sodipodi:guide
       position="99.999999,99.999999"
       orientation="1,0"
       id="guide4527"
       inkscape:locked="false"
       inkscape:label=""
       inkscape:color="rgb(0,0,255)" />
    <sodipodi:guide
       position="0,0"
       orientation="1,0"
       id="guide4529"
       inkscape:locked="false"
       inkscape:label=""
       inkscape:color="rgb(0,0,255)" />
    <sodipodi:guide
       position="0,0"
       orientation="0,1"
       id="guide4531"
       inkscape:locked="false"
       inkscape:label=""
       inkscape:color="rgb(0,0,255)" />
    <sodipodi:guide
       position="99.999999,99.999999"
       orientation="0,1"
       id="guide4533"
       inkscape:locked="false"
       inkscape:label=""
       inkscape:color="rgb(0,0,255)" />
    <sodipodi:guide
       position="94.999999,0"
       orientation="1,0"
       id="guide4535"
       inkscape:locked="false"
       inkscape:label=""
       inkscape:color="rgb(0,0,255)" />
    <sodipodi:guide
       position="94.999999,4.9999999"
       orientation="0,1"
       id="guide4541"
       inkscape:locked="false"
       inkscape:label=""
       inkscape:color="rgb(0,0,255)" />
    <sodipodi:guide
       position="30,0"
       orientation="1,0"
       id="guide4543"
       inkscape:locked="false"
       inkscape:label=""
       inkscape:color="rgb(0,0,255)" />
  </sodipodi:namedview>
  <metadata
     id="metadata5">
    <rdf:RDF>
      <cc:Work
         rdf:about="">
        <dc:format>image/svg+xml</dc:format>
        <dc:type
           rdf:resource="http://purl.org/dc/dcmitype/StillImage" />
        <dc:title></dc:title>
      </cc:Work>
    </rdf:RDF>
  </metadata>
  <g
     inkscape:label="Layer 1"
     inkscape:groupmode="layer"
     id="layer1"
     transform="translate(0,-197)">
    <path
       style="fill:#000000;fill-opacity:1;stroke-width:1.0498687"
       d="M 0 0 L 0 377.95312 L 377.95312 377.95312 L 377.95312 0 L 0 0 z M 281.24805 277.22266 C 285.17997 277.22266 289.52735 277.67662 294.29102 278.58398 L 294.29102 287.08984 C 289.11147 285.99344 284.65109 285.44531 280.9082 285.44531 C 272.02358 285.44531 267.58203 290.09598 267.58203 299.39648 L 267.58203 309.37695 L 292.5332 309.37695 L 292.5332 317.59961 L 267.58203 317.59961 L 267.58203 358.03516 L 257.54297 358.03516 L 257.54297 317.59961 L 239.22656 317.59961 L 239.22656 309.37695 L 257.54297 309.37695 L 257.54297 299.96289 C 257.54297 284.80232 265.44476 277.22266 281.24805 277.22266 z M 139.24609 300.07617 C 143.21582 300.07617 146.73061 300.69964 149.79297 301.94727 C 152.85533 303.19489 155.42648 304.97308 157.50586 307.2793 C 159.62305 309.54771 161.21094 312.32603 162.26953 315.61523 C 163.36593 318.86663 163.91406 322.51521 163.91406 326.56055 C 163.91406 327.9594 163.89523 329.131 163.85742 330.07617 C 163.81961 331.02134 163.76311 331.91044 163.6875 332.74219 L 123.70703 332.74219 C 123.70703 338.56445 125.33259 343.04367 128.58398 346.18164 C 131.83538 349.28181 136.52372 350.83203 142.64844 350.83203 C 144.31194 350.83203 145.97517 350.77553 147.63867 350.66211 C 149.30218 350.51088 150.9089 350.32254 152.45898 350.0957 C 154.00907 349.86886 155.48396 349.62207 156.88281 349.35742 C 158.31948 349.05497 159.64174 348.73479 160.85156 348.39453 L 160.85156 356.50391 C 158.16727 357.26004 155.12528 357.86468 151.72266 358.31836 C 148.35784 358.80985 144.85993 359.05469 141.23047 359.05469 C 136.35338 359.05469 132.15667 358.39355 128.64062 357.07031 C 125.12458 355.74707 122.23326 353.83705 119.96484 351.3418 C 117.73424 348.80873 116.07101 345.72907 114.97461 342.09961 C 113.91602 338.43234 113.38672 334.29213 113.38672 329.67969 C 113.38672 325.67216 113.95368 321.89174 115.08789 318.33789 C 116.2599 314.74623 117.94196 311.60812 120.13477 308.92383 C 122.36537 306.20173 125.08719 304.04687 128.30078 302.45898 C 131.51437 300.87109 135.16295 300.07617 139.24609 300.07617 z M 205.19922 300.07617 C 207.42983 300.07617 209.90681 300.20801 212.62891 300.47266 C 215.351 300.6995 218.18583 301.11579 221.13477 301.7207 L 221.13477 310.51172 C 218.0346 309.75558 215.08677 309.20745 212.28906 308.86719 C 209.52916 308.48912 207.12751 308.29883 205.08594 308.29883 C 202.62849 308.29883 200.54897 308.48912 198.84766 308.86719 C 197.18415 309.24526 195.82422 309.77455 194.76562 310.45508 C 193.74484 311.0978 193.00642 311.87193 192.55273 312.7793 C 192.09905 313.64886 191.87305 314.59445 191.87305 315.61523 C 191.87305 316.63602 192.06138 317.56278 192.43945 318.39453 C 192.85533 319.22628 193.59375 320.03809 194.65234 320.83203 C 195.74874 321.58817 197.2613 322.36426 199.18945 323.1582 C 201.11761 323.91434 203.6303 324.74498 206.73047 325.65234 C 210.09528 326.63532 212.93206 327.67508 215.23828 328.77148 C 217.5445 329.83008 219.4149 331.02051 220.85156 332.34375 C 222.28823 333.66699 223.30915 335.16071 223.91406 336.82422 C 224.55678 338.48772 224.87891 340.37891 224.87891 342.49609 C 224.87891 344.49986 224.53795 346.29492 223.85742 347.88281 C 223.1769 349.4707 222.25014 350.88909 221.07812 352.13672 C 219.90611 353.34654 218.54618 354.3863 216.99609 355.25586 C 215.44601 356.12542 213.78278 356.84305 212.00586 357.41016 C 210.26674 357.97726 208.46973 358.39355 206.61719 358.6582 C 204.76465 358.92285 202.95075 359.05469 201.17383 359.05469 C 197.31752 359.05469 193.76311 358.88518 190.51172 358.54492 C 187.29813 358.20466 184.14118 357.65653 181.04102 356.90039 L 181.04102 347.82617 C 184.36802 348.77134 187.67564 349.49093 190.96484 349.98242 C 194.25404 350.47391 197.52595 350.71875 200.77734 350.71875 C 205.50321 350.71875 208.99916 350.07645 211.26758 348.79102 C 213.53599 347.50558 214.66992 345.6709 214.66992 343.28906 C 214.66992 342.26828 214.48158 341.3623 214.10352 340.56836 C 213.76325 339.73661 213.12095 338.96052 212.17578 338.24219 C 211.23061 337.48605 209.75572 336.71191 207.75195 335.91797 C 205.78599 335.12402 203.08301 334.2161 199.64258 333.19531 C 197.07171 332.43917 194.68889 331.58775 192.49609 330.64258 C 190.3411 329.6596 188.4707 328.50684 186.88281 327.18359 C 185.29492 325.86035 184.04604 324.31013 183.13867 322.5332 C 182.23131 320.75628 181.7793 318.65792 181.7793 316.23828 C 181.7793 314.65039 182.13714 312.91183 182.85547 311.02148 C 183.61161 309.13114 184.87933 307.37374 186.65625 305.74805 C 188.43317 304.12235 190.83287 302.7793 193.85742 301.7207 C 196.88197 300.6243 200.66239 300.07617 205.19922 300.07617 z M 303.64844 301.09766 L 316.29492 301.09766 L 331.26758 322.98828 L 345.95508 301.09766 L 358.14844 301.09766 L 336.76758 329.67969 L 359.05469 358.03516 L 345.95508 358.03516 L 330.58594 336.31445 L 315.38867 358.03516 L 302.62891 358.03516 L 324.68945 329.45312 L 303.64844 301.09766 z M 138.79297 307.95898 C 136.63797 307.95898 134.67146 308.37528 132.89453 309.20703 C 131.11761 310.03878 129.58622 311.21038 128.30078 312.72266 C 127.01535 314.23493 125.97559 316.04883 125.18164 318.16602 C 124.3877 320.2832 123.89607 322.60952 123.70703 325.14258 L 153.65039 325.14258 C 153.76381 322.60952 153.51702 320.30399 152.91211 318.22461 C 152.3072 316.10742 151.36356 314.29157 150.07812 312.7793 C 148.8305 311.26702 147.26144 310.09542 145.37109 309.26367 C 143.48075 308.39411 141.28822 307.95898 138.79297 307.95898 z "
       transform="matrix(0.26458333,0,0,0.26458333,0,197)"
       id="rect3713" />
  </g>
  <g
     inkscape:groupmode="layer"
     id="layer2"
     inkscape:label="Text"
     transform="translate(0,-197)" />
</svg>
