<?xml version="1.0" encoding="UTF-8" standalone="no"?>
<svg
   xmlns:dc="http://purl.org/dc/elements/1.1/"
   xmlns:cc="http://creativecommons.org/ns#"
   xmlns:rdf="http://www.w3.org/1999/02/22-rdf-syntax-ns#"
   xmlns:svg="http://www.w3.org/2000/svg"
   xmlns="http://www.w3.org/2000/svg"
   xmlns:xlink="http://www.w3.org/1999/xlink"
   id="svg8"
   version="1.1"
   viewBox="0 0 100 100"
   height="100mm"
   width="100mm">
  <defs
     id="defs2">
    <pattern
       patternTransform="translate(3.4293492e-6,4.6727362e-5)"
       id="pattern5318"
       xlink:href="#pattern4590" />
    <pattern
       id="pattern4590"
       patternTransform="matrix(0.26458333,0,0,0.26458333,29.999999,270.34834)"
       height="81.833046"
       width="245.66931"
       patternUnits="userSpaceOnUse">
      <g
         transform="matrix(3.7795276,0,0,3.7795276,-113.38582,-1021.789)"
         aria-label="esfx"
         style="font-style:normal;font-variant:normal;font-weight:normal;font-stretch:normal;font-size:30.72945595px;line-height:1.25;font-family:consolas;-inkscape-font-specification:consolas;letter-spacing:0px;word-spacing:0px;fill:#ffffff;fill-opacity:1;stroke:none;stroke-width:0.7682364"
         id="text4523">
        <path
           d="m 43.369113,283.40236 q 0,0.55517 -0.015,0.93028 -0.01501,0.37512 -0.04501,0.70522 H 32.73084 q 0,2.31071 1.290397,3.55609 1.290397,1.23038 3.721145,1.23038 0.660203,0 1.320406,-0.045 0.660203,-0.06 1.275393,-0.15005 0.615189,-0.09 1.17036,-0.19506 0.570175,-0.12003 1.050323,-0.25508 v 2.14566 q -1.065328,0.3001 -2.415743,0.48015 Q 38.80771,292 37.367266,292 q -1.935595,0 -3.331025,-0.52516 -1.395429,-0.52516 -2.295706,-1.51547 -0.885272,-1.0053 -1.320406,-2.44575 -0.42013,-1.45545 -0.42013,-3.28601 0,-1.59049 0.450139,-3.00092 0.465143,-1.42544 1.335411,-2.49077 0.885272,-1.08033 2.160665,-1.71053 1.275392,-0.63019 2.895891,-0.63019 1.575485,0 2.790859,0.49515 1.215374,0.49516 2.040628,1.41044 0.840258,0.90027 1.260387,2.20568 0.435134,1.29039 0.435134,2.89589 z m -2.715835,-0.37512 q 0.04501,-1.00531 -0.19506,-1.83056 -0.240074,-0.84026 -0.750231,-1.44045 -0.495153,-0.60018 -1.245384,-0.93028 -0.75023,-0.34511 -1.740535,-0.34511 -0.855263,0 -1.56048,0.3301 -0.705217,0.33011 -1.215374,0.93029 -0.510157,0.60019 -0.825254,1.44044 -0.315097,0.84026 -0.39012,1.84557 z"
           style="font-style:normal;font-variant:normal;font-weight:normal;font-stretch:normal;font-family:consolas;-inkscape-font-specification:consolas;fill:#ffffff;stroke-width:0.7682364"
           id="path4581" />
        <path
           d="m 59.499078,287.61865 q 0,0.79525 -0.270084,1.42544 -0.270083,0.6302 -0.735226,1.12535 -0.465143,0.48015 -1.080332,0.82525 -0.61519,0.34511 -1.320407,0.57018 -0.690212,0.22507 -1.425438,0.3301 Q 53.932365,292 53.227148,292 q -1.530471,0 -2.820868,-0.13504 -1.275393,-0.13504 -2.505771,-0.43513 v -2.40074 q 1.320406,0.37511 2.625808,0.57017 1.305401,0.19506 2.595798,0.19506 1.875577,0 2.775854,-0.51015 0.900277,-0.51016 0.900277,-1.45545 0,-0.40513 -0.150046,-0.72022 -0.135041,-0.3301 -0.510157,-0.61519 -0.375115,-0.30009 -1.17036,-0.61519 -0.78024,-0.3151 -2.14566,-0.72022 -1.020314,-0.3001 -1.890582,-0.67521 -0.855263,-0.39012 -1.485457,-0.91528 -0.630194,-0.52516 -0.990305,-1.23038 -0.36011,-0.70522 -0.36011,-1.66551 0,-0.6302 0.285087,-1.38043 0.300093,-0.75023 1.00531,-1.39543 0.705217,-0.6452 1.905586,-1.06533 1.200369,-0.43513 3.000923,-0.43513 0.885273,0 1.965605,0.10503 1.080333,0.09 2.250693,0.3301 v 2.32572 q -1.230379,-0.30009 -2.34072,-0.43513 -1.095337,-0.15005 -1.905587,-0.15005 -0.9753,0 -1.650508,0.15005 -0.660203,0.15004 -1.080332,0.42013 -0.405125,0.25507 -0.58518,0.61518 -0.180056,0.34511 -0.180056,0.75024 0,0.40512 0.150047,0.73522 0.16505,0.3301 0.58518,0.6452 0.435134,0.30009 1.200369,0.61519 0.765235,0.30009 1.995614,0.6602 1.335411,0.39012 2.250693,0.82526 0.915281,0.42013 1.485457,0.94529 0.570175,0.52516 0.810249,1.18536 0.255079,0.66021 0.255079,1.50046 z"
           style="font-style:normal;font-variant:normal;font-weight:normal;font-stretch:normal;font-family:consolas;-inkscape-font-specification:consolas;fill:#ffffff;stroke-width:0.7682364"
           id="path4583" />
        <path
           d="m 77.86473,272.95914 q -2.055633,-0.43513 -3.54109,-0.43513 -3.526085,0 -3.526085,3.69114 v 2.64081 h 6.602032 v 2.17567 h -6.602032 v 10.69829 h -2.655817 v -10.69829 h -4.846491 v -2.17567 h 4.846491 v -2.49077 q 0,-6.01685 6.27193,-6.01685 1.56048,0 3.451062,0.36011 z m -15.769853,3.70614 z"
           style="font-style:normal;font-variant:normal;font-weight:normal;font-stretch:normal;font-family:consolas;-inkscape-font-specification:consolas;fill:#ffffff;stroke-width:0.7682364"
           id="path4585" />
        <path
           d="m 95.000004,291.72992 h -3.466067 l -4.066251,-5.74677 -4.021238,5.74677 h -3.376039 l 5.836797,-7.56233 -5.566713,-7.50231 h 3.346029 l 3.961219,5.79179 3.886196,-5.79179 h 3.225993 l -5.656741,7.56233 z"
           style="font-style:normal;font-variant:normal;font-weight:normal;font-stretch:normal;font-family:consolas;-inkscape-font-specification:consolas;fill:#ffffff;stroke-width:0.7682364"
           id="path4587" />
      </g>
    </pattern>
    <pattern
       id="pattern5315"
       patternTransform="matrix(0.26458333,0,0,0.26458333,29.999998,270.34833)"
       height="81.833049"
       width="245.66932"
       patternUnits="userSpaceOnUse">
      <rect
         style="fill:url(#pattern5318);stroke:none;stroke-width:3.77952766"
         width="245.66933"
         height="81.833046"
         x="0"
         y="0"
         id="rect4597" />
    </pattern>
  </defs>
  <metadata
     id="metadata5">
    <rdf:RDF>
      <cc:Work
         rdf:about="">
        <dc:format>image/svg+xml</dc:format>
        <dc:type
           rdf:resource="http://purl.org/dc/dcmitype/StillImage" />
        <dc:title></dc:title>
      </cc:Work>
    </rdf:RDF>
  </metadata>
  <g
     transform="translate(0,-197)"
     id="layer1">
    <path
       id="rect3713"
       d="M 0,197 H 100 V 297 H 0 Z"
       style="fill:#ff7900;fill-opacity:1;stroke-width:0.27777776" />
    <path
       id="rect5320"
       d="m 29.999998,270.34833 h 65.000008 v 21.65166 H 29.999998 Z"
       style="fill:url(#pattern5315);stroke:none" />
  </g>
  <g
     transform="translate(0,-197)"
     id="layer2" />
</svg>
