<?xml version="1.0" encoding="UTF-8"?>
<svg width="100mm" height="100mm" version="1.1" viewBox="0 0 100 100" xmlns="http://www.w3.org/2000/svg"><g transform="translate(0,-197)"><path d="m0 197h100v100h-100z" fill="#ff7900" stroke-width=".27778"/><g fill="#fff" stroke-width="1.3394" aria-label="es"><path d="m47.574 226.89q0 0.97567-0.02637 1.6349t-0.07911 1.2394h-18.59q0 4.0609 2.2678 6.2495 2.2678 2.1623 6.5396 2.1623 1.1602 0 2.3205-0.0791 1.1602-0.10547 2.2414-0.26369t2.0568-0.3428q1.002-0.21096 1.8458-0.44828v3.7708q-1.8722 0.52739-4.2455 0.84382-2.3469 0.3428-4.8783 0.3428-3.4016 0-5.854-0.92293-2.4523-0.92292-4.0345-2.6633-1.5558-1.7667-2.3205-4.2982-0.73834-2.5578-0.73834-5.7749 0-2.7952 0.79108-5.2739 0.81745-2.5051 2.3469-4.3773 1.5558-1.8986 3.7972-3.0061 2.2414-1.1075 5.0893-1.1075 2.7688 0 4.9047 0.87018 2.1359 0.87019 3.5862 2.4787 1.4767 1.5822 2.215 3.8763 0.76471 2.2678 0.76471 5.0893zm-4.7728-0.65923q0.07911-1.7667-0.3428-3.217-0.42191-1.4767-1.3185-2.5314-0.87019-1.0548-2.1887-1.6349-1.3185-0.60649-3.0588-0.60649-1.503 0-2.7424 0.58012-1.2394 0.58013-2.1359 1.6349t-1.4503 2.5314-0.6856 3.2434z" style=""/><path d="m75.921 234.3q0 1.3976-0.47465 2.5051t-1.2921 1.9777q-0.81745 0.84382-1.8986 1.4503-1.0811 0.6065-2.3205 1.002-1.213 0.39554-2.5051 0.58012-1.2921 0.18459-2.5315 0.18459-2.6897 0-4.9574-0.23733-2.2414-0.23732-4.4037-0.76471v-4.2191q2.3205 0.65923 4.6146 1.002t4.5619 0.3428q3.2962 0 4.8783-0.89655 1.5822-0.89656 1.5822-2.5578 0-0.71198-0.26369-1.2657-0.23732-0.58013-0.89656-1.0811-0.65923-0.52739-2.0568-1.0811-1.3712-0.55376-3.7708-1.2657-1.7931-0.52738-3.3225-1.1866-1.503-0.6856-2.6106-1.6085-1.1075-0.92293-1.7404-2.1623-0.63286-1.2394-0.63286-2.927 0-1.1075 0.50102-2.426 0.52738-1.3185 1.7667-2.4523 1.2394-1.1339 3.3489-1.8722 2.1095-0.76471 5.2739-0.76471 1.5558 0 3.4544 0.18458 1.8986 0.15822 3.9554 0.58013v4.0872q-2.1623-0.52739-4.1136-0.76471-1.925-0.2637-3.3489-0.2637-1.714 0-2.9006 0.2637-1.1602 0.26369-1.8986 0.73834-0.71197 0.44827-1.0284 1.0811-0.31643 0.60649-0.31643 1.3185t0.26369 1.2921q0.29006 0.58012 1.0284 1.1339 0.76471 0.52738 2.1095 1.0811 1.3448 0.52738 3.5071 1.1602 2.3469 0.6856 3.9554 1.4503 1.6085 0.73834 2.6106 1.6613 1.002 0.92293 1.4239 2.0832 0.44828 1.1602 0.44828 2.6369z" style=""/></g><g fill="#fff" stroke-width="1.3394" aria-label="fx"><path d="m47.746 254.01q-3.6126-0.76471-6.2232-0.76471-6.1968 0-6.1968 6.4868v4.641h11.602v3.8236h-11.602v18.801h-4.6674v-18.801h-8.5173v-3.8236h8.5173v-4.3773q0-10.574 11.022-10.574 2.7424 0 6.0649 0.63287z"/><path d="m77.859 287h-6.0913l-7.1461-10.099-7.067 10.099h-5.9331l10.258-13.29-9.783-13.185h5.8804l6.9615 10.179 6.8296-10.179h5.6694l-9.9412 13.29z"/></g></g></svg>
